<svg width="24" height="24" viewBox="0 0 24 24" fill="none" xmlns="http://www.w3.org/2000/svg">
<path fill-rule="evenodd" clip-rule="evenodd" d="M1.36519 12.2933L12.3534 1.30501C12.8109 0.847569 13.4308 0.59082 14.0767 0.59082C14.7235 0.59082 15.3434 0.847569 15.8009 1.30501C17.5664 3.07138 20.9286 6.43351 22.6949 8.19907C23.1524 8.65651 23.4091 9.27645 23.4091 9.92319C23.4091 10.5691 23.1516 11.1891 22.6949 11.6465L11.7067 22.6348C11.2492 23.0922 10.6293 23.3489 9.98256 23.3489C9.33662 23.3489 8.71669 23.0922 8.25925 22.6348C7.38256 21.7581 6.32387 20.6994 6.32387 20.6994C6.00618 20.3825 6.00618 19.8674 6.32387 19.5505C6.32387 19.5505 6.54406 19.3303 6.83656 19.0378C7.06975 18.8046 7.20056 18.4886 7.20056 18.1587C7.20056 17.8288 7.06975 17.5128 6.83656 17.2796L6.83575 17.2779C6.60256 17.0448 6.28569 16.9139 5.95662 16.9139C5.62675 16.9139 5.31069 17.0448 5.0775 17.2779C4.78419 17.5713 4.564 17.7906 4.564 17.7906C4.24712 18.1083 3.73281 18.1083 3.41512 17.7906C3.41512 17.7906 2.2825 16.658 1.36519 15.7407C0.907749 15.2833 0.651001 14.6633 0.651001 14.0174C0.651001 13.3706 0.907749 12.7507 1.36519 12.2933ZM12.9279 19.115L21.5461 10.4976C21.698 10.3449 21.7841 10.1385 21.7841 9.92319C21.7841 9.70707 21.698 9.50069 21.5461 9.34876C19.7797 7.58238 16.4176 4.22026 14.6512 2.45388C14.4992 2.30194 14.2929 2.21582 14.0767 2.21582C13.8614 2.21582 13.6551 2.30194 13.5023 2.45388L4.88494 11.0721L6.03381 12.2209C6.35069 12.5378 6.35069 13.0529 6.03381 13.3698C5.71694 13.6875 5.20181 13.6875 4.88494 13.3698L3.73525 12.2209L2.51406 13.4421C2.36131 13.5949 2.276 13.8013 2.276 14.0174C2.276 14.2327 2.36131 14.4391 2.51406 14.5918L3.99119 16.0681C4.52175 15.5684 5.22456 15.2889 5.95662 15.2889C6.71712 15.2889 7.44675 15.5912 7.98462 16.1291L7.98543 16.1307C8.52331 16.6686 8.82556 17.3982 8.82556 18.1587C8.82556 18.8899 8.54606 19.5928 8.04637 20.1241L9.40813 21.4859C9.56088 21.6386 9.76725 21.7239 9.98256 21.7239C10.1987 21.7239 10.4051 21.6386 10.557 21.4859L11.779 20.2647L10.6301 19.115C10.3124 18.7981 10.3124 18.283 10.6301 17.9661C10.947 17.6493 11.4621 17.6493 11.779 17.9661L12.9279 19.115ZM13.3227 8.03576L14.9031 6.89907C15.1493 6.72113 15.4751 6.69594 15.7464 6.83407C16.017 6.97219 16.1884 7.25007 16.1901 7.55476L16.199 9.50069L17.7679 10.652C18.0133 10.8324 18.1376 11.1338 18.0897 11.4344C18.0426 11.7351 17.8313 11.9837 17.5421 12.0788L15.6936 12.6889L15.0834 14.5374C14.9884 14.8258 14.7397 15.0371 14.4391 15.085C14.1385 15.1321 13.8371 15.0086 13.6575 14.7633L12.5054 13.1935L10.5594 13.1846C10.2556 13.1829 9.97769 13.0123 9.83956 12.7409C9.70144 12.4704 9.72581 12.1446 9.90374 11.8976L11.0404 10.3181L10.4473 8.46394C10.3547 8.17388 10.4319 7.85701 10.6472 7.6417C10.8617 7.4272 11.1794 7.35001 11.4686 7.44263L13.3227 8.03576Z" fill="url(#paint0_linear_614_99862)" fill-opacity="0.9"/>
<defs>
<linearGradient id="paint0_linear_614_99862" x1="12.0301" y1="0.59082" x2="12.0301" y2="23.3489" gradientUnits="userSpaceOnUse">
<stop stop-color="#FF349A"/>
<stop offset="1" stop-color="#FF992A"/>
</linearGradient>
</defs>
</svg>
