<svg width="56" height="56" viewBox="0 0 56 56" fill="none" xmlns="http://www.w3.org/2000/svg">
<path fill-rule="evenodd" clip-rule="evenodd" d="M25.0916 16.4701C23.5429 17.2769 22.2758 17.9596 22.276 17.9873C22.2767 18.059 25.9931 19.9411 26.125 19.9365C26.185 19.9345 26.6203 19.7342 27.0923 19.4913L27.9505 19.0499L28.8878 19.5317L29.8251 20.0136L31.36 19.3239C33.6729 18.2846 33.9131 18.1707 33.8755 18.1324C33.8255 18.0816 32.9959 17.636 30.7452 16.4511C29.6575 15.8784 28.6018 15.3169 28.3991 15.2033C28.1964 15.0897 28.003 14.9983 27.9692 15C27.9354 15.0018 26.6404 15.6633 25.0916 16.4701ZM18.2988 19.9877L16.6865 20.8205V24.4754C16.6865 26.4856 16.7077 28.1303 16.7336 28.1303C16.7595 28.1303 17.5528 27.7864 18.4963 27.3662L20.212 26.6021V22.7495L21.0503 23.2063C21.6963 23.5579 22.3428 23.9088 22.9896 24.2591L24.0904 24.8551L24.5803 24.6336C24.8875 24.4945 25.1941 24.354 25.5001 24.2121C25.7365 24.102 26.317 23.8406 26.7899 23.6311C27.2628 23.4215 27.7006 23.2107 27.7626 23.1626C27.8451 23.0988 26.8396 22.5432 24.0436 21.1074C21.936 20.0251 20.1439 19.143 20.0613 19.1472C19.9787 19.1514 19.1855 19.5296 18.2988 19.9877ZM34.166 20.2215C33.068 20.7172 32.1688 21.1426 32.1678 21.1669C32.1668 21.1911 32.7653 21.547 33.4978 21.9575C34.2303 22.3682 34.8296 22.7262 34.8296 22.7531C34.8296 22.78 34.1814 23.0941 33.3893 23.4511C32.5971 23.8081 30.5948 24.7124 28.9395 25.4607L23.3934 27.9676C21.9983 28.5983 20.7408 29.1667 20.5989 29.231C17.7493 30.521 16.966 30.8789 16.8585 30.9403C16.7503 31.0022 16.7258 31.3616 16.7066 33.1654L16.6836 35.3167L18.1253 36.0513L19.5671 36.7859L21.5662 35.8837C22.6658 35.3875 23.5654 34.9555 23.5654 34.9237C23.5654 34.892 23.3622 34.7596 23.114 34.6294C22.8656 34.4992 22.353 34.2109 21.9746 33.9887C21.5963 33.7665 21.2191 33.5626 21.1363 33.5356C21.0535 33.5086 20.987 33.4615 20.9883 33.4307C20.9897 33.4 21.87 32.9819 22.9445 32.5014C25.0315 31.5683 26.6286 30.8491 30.0573 29.2986C31.5906 28.6053 33.124 27.9126 34.6576 27.2202C36.0054 26.6118 37.5725 25.9013 38.14 25.6413L39.1719 25.1685L39.1948 22.9926L39.2179 20.8169L37.7556 20.0663C36.9513 19.6535 36.2638 19.3168 36.2278 19.318C36.1918 19.3192 35.264 19.7257 34.166 20.2215ZM38.7801 28.0712C38.5646 28.1764 38.139 28.3735 37.8343 28.509C37.5296 28.6446 36.9513 28.9055 36.5493 29.089L35.8184 29.4223L35.8017 31.3325C35.7925 32.3831 35.7538 33.238 35.7158 33.2325C35.6292 33.2196 34.2594 32.5171 32.8824 31.7792C31.8886 31.2467 31.8262 31.2256 31.5926 31.3412C31.4576 31.4081 30.6507 31.77 29.7994 32.1456C28.9481 32.5211 28.2239 32.8529 28.1898 32.883C28.1558 32.9129 29.8691 33.8415 31.9972 34.9466L35.8663 36.9558L37.5191 36.1008C38.4281 35.6306 39.201 35.2017 39.2366 35.1477C39.3167 35.0265 39.3099 27.8631 39.2297 27.8728C39.1979 27.8766 38.9956 27.9659 38.7801 28.0712ZM29.6274 36.4791C29.3407 36.6023 29.0541 36.7258 28.7676 36.8494C27.9023 37.2237 28.0719 37.2362 27.0424 36.7237C26.3568 36.3824 26.0612 36.2771 25.9329 36.3282C25.8367 36.3665 25.0086 36.7391 24.0925 37.1561C23.1765 37.5731 22.3952 37.9143 22.3563 37.9143C21.972 37.9143 22.611 38.2961 25.0765 39.5398L27.9681 40.9983L29.1847 40.3976C29.8538 40.0673 31.2035 39.4057 32.184 38.9276C33.1644 38.4493 33.9544 38.0456 33.9396 38.0303C33.9247 38.0152 33.1032 37.5933 32.114 37.0929L30.3153 36.1832L29.6274 36.4791Z" fill="white" style="fill:white;fill-opacity:1;"/>
</svg>
