<svg width="20" height="20" viewBox="0 0 20 20" fill="none" xmlns="http://www.w3.org/2000/svg">
<path fill-rule="evenodd" clip-rule="evenodd" d="M1.91129 10.3989C2.02692 10.0737 2.38432 9.90383 2.70955 10.0194L9.37204 12.3883C9.77837 12.5328 10.222 12.5328 10.6283 12.3883L17.2908 10.0194C17.616 9.90383 17.9735 10.0737 18.089 10.3989C18.2047 10.7242 18.0348 11.0816 17.7095 11.1972L11.047 13.5661C10.3699 13.8068 9.63046 13.8068 8.95329 13.5661L2.29079 11.1972C1.96555 11.0816 1.79565 10.7242 1.91129 10.3989Z" fill="white" fill-opacity="0.9"/>
<path fill-rule="evenodd" clip-rule="evenodd" d="M1.91129 13.9405C2.02692 13.6154 2.38432 13.4455 2.70955 13.561L9.37204 15.93C9.77837 16.0745 10.222 16.0745 10.6283 15.93L17.2908 13.561C17.616 13.4455 17.9735 13.6154 18.089 13.9405C18.2047 14.2658 18.0348 14.6232 17.7095 14.7389L11.047 17.1077C10.3699 17.3485 9.63046 17.3485 8.95329 17.1077L2.29079 14.7389C1.96555 14.6232 1.79565 14.2658 1.91129 13.9405Z" fill="white" fill-opacity="0.9"/>
<path fill-rule="evenodd" clip-rule="evenodd" d="M10.9245 4.12656C10.3267 3.90914 9.67138 3.90914 9.07346 4.12656L3.19963 6.2625C3.01678 6.32899 3.01679 6.58759 3.19963 6.65408L9.07346 8.79004C9.67138 9.00745 10.3267 9.00745 10.9245 8.79004L16.7984 6.65408C16.9813 6.58759 16.9813 6.32899 16.7984 6.2625L10.9245 4.12656ZM8.64629 2.95182C9.52013 2.63406 10.478 2.63406 11.3518 2.95182L17.2256 5.08776C18.5055 5.55319 18.5055 7.36339 17.2256 7.82882L11.3518 9.96479C10.478 10.2825 9.52013 10.2825 8.64629 9.96479L2.77246 7.82882C1.49251 7.36339 1.49252 5.55319 2.77246 5.08776L8.64629 2.95182Z" fill="white" fill-opacity="0.9"/>
</svg>
