<svg width="20" height="20" viewBox="0 0 20 20" fill="none" xmlns="http://www.w3.org/2000/svg">
<path fill-rule="evenodd" clip-rule="evenodd" d="M5.20312 7.5C5.20312 7.15483 5.48295 6.875 5.82812 6.875H10.8281C11.1733 6.875 11.4531 7.15483 11.4531 7.5C11.4531 7.84517 11.1733 8.125 10.8281 8.125H5.82812C5.48295 8.125 5.20312 7.84517 5.20312 7.5Z" fill="white" fill-opacity="0.9"/>
<path fill-rule="evenodd" clip-rule="evenodd" d="M15.7623 8.91699C15.4631 8.91699 15.1999 9.03299 15.0101 9.22799L14.9989 9.23924C14.7772 9.45566 14.6534 9.76374 14.6845 10.0911L14.6852 10.0984C14.7293 10.6276 15.238 11.0837 15.8623 11.0837H17.4813C17.616 11.0749 17.7039 10.9696 17.7039 10.8587V9.14199C17.7039 9.03099 17.616 8.92566 17.4813 8.91699H15.7623ZM14.12 8.35024C14.5464 7.91544 15.1309 7.66699 15.7623 7.66699H17.4956C17.5031 7.66699 17.5105 7.66712 17.5179 7.66738C18.3121 7.69575 18.9539 8.33841 18.9539 9.14199V10.8587C18.9539 11.6622 18.3121 12.3049 17.5179 12.3332C17.5105 12.3335 17.5031 12.3337 17.4956 12.3337H15.8623C14.6877 12.3337 13.5476 11.4747 13.4398 10.2059C13.3725 9.48741 13.646 8.81616 14.12 8.35024Z" fill="white" fill-opacity="0.9"/>
<path fill-rule="evenodd" clip-rule="evenodd" d="M5.83073 3.54175C5.62719 3.54175 5.43405 3.55628 5.25077 3.58448L5.23355 3.58688C4.31078 3.70268 3.58539 4.09776 3.08869 4.68051C2.5907 5.26476 2.28906 6.07747 2.28906 7.08342V12.9167C2.28906 14.0247 2.65565 14.8995 3.25184 15.4957C3.84802 16.0918 4.72276 16.4584 5.83073 16.4584H13.3307C14.4387 16.4584 15.3135 16.0918 15.9096 15.4957C16.5058 14.8995 16.8724 14.0247 16.8724 12.9167V12.3334H15.8641C14.6894 12.3334 13.5493 11.4745 13.4416 10.2057C13.3742 9.48717 13.6478 8.81592 14.1218 8.35008C14.5481 7.91521 15.1326 7.66676 15.7641 7.66676H16.8724V7.08342C16.8724 6.07066 16.5655 5.25288 16.0596 4.66674C15.555 4.08193 14.8183 3.68792 13.8836 3.57922C13.8733 3.57803 13.8631 3.57659 13.853 3.5749C13.7031 3.54991 13.5346 3.54175 13.3307 3.54175H5.83073ZM5.06934 2.34769C5.31667 2.31011 5.57064 2.29175 5.83073 2.29175H13.3307C13.5555 2.29175 13.7981 2.29987 14.0428 2.33934C15.2516 2.4832 16.2803 3.00916 17.006 3.85008C17.7335 4.69311 18.1224 5.81283 18.1224 7.08342V8.29176C18.1224 8.63692 17.8426 8.91675 17.4974 8.91675H15.7641C15.4648 8.91675 15.2016 9.03275 15.0118 9.22775L15.0006 9.239C14.7789 9.45542 14.6551 9.76358 14.6862 10.0908L14.687 10.0982C14.7311 10.6273 15.2398 11.0834 15.8641 11.0834H17.4974C17.8426 11.0834 18.1224 11.3632 18.1224 11.7084V12.9167C18.1224 14.3087 17.6556 15.5173 16.7935 16.3795C15.9313 17.2417 14.7227 17.7084 13.3307 17.7084H5.83073C4.4387 17.7084 3.2301 17.2417 2.36795 16.3795C1.5058 15.5173 1.03906 14.3087 1.03906 12.9167V7.08342C1.03906 5.82269 1.42075 4.71041 2.13736 3.86966C2.85354 3.02941 3.87083 2.5 5.06934 2.34769Z" fill="white" fill-opacity="0.9"/>
</svg>
