<svg width="20" height="20" viewBox="0 0 20 20" fill="none" xmlns="http://www.w3.org/2000/svg">
<g clip-path="url(#clip0_5670_110662)">
<path d="M13.75 19.375H10C9.83424 19.375 9.67527 19.3092 9.55806 19.1919C9.44085 19.0747 9.375 18.9158 9.375 18.75V16.875C9.375 16.5435 9.2433 16.2255 9.00888 15.9911C8.77446 15.7567 8.45652 15.625 8.125 15.625C7.79348 15.625 7.47554 15.7567 7.24112 15.9911C7.0067 16.2255 6.875 16.5435 6.875 16.875V18.75C6.875 18.9158 6.80915 19.0747 6.69194 19.1919C6.57473 19.3092 6.41576 19.375 6.25 19.375H2.5C2.00272 19.375 1.52581 19.1775 1.17417 18.8258C0.822544 18.4742 0.625 17.9973 0.625 17.5V13.75C0.625 13.5842 0.690848 13.4253 0.808058 13.3081C0.925268 13.1908 1.08424 13.125 1.25 13.125H3.125C3.45652 13.125 3.77446 12.9933 4.00888 12.7589C4.2433 12.5245 4.375 12.2065 4.375 11.875C4.375 11.5435 4.2433 11.2255 4.00888 10.9911C3.77446 10.7567 3.45652 10.625 3.125 10.625H1.25C1.08424 10.625 0.925268 10.5592 0.808058 10.4419C0.690848 10.3247 0.625 10.1658 0.625 10V6.25C0.625 5.75272 0.822544 5.27581 1.17417 4.92417C1.52581 4.57254 2.00272 4.375 2.5 4.375H5.625V3.125C5.625 2.46196 5.88839 1.82607 6.35723 1.35723C6.82607 0.888392 7.46196 0.625 8.125 0.625C8.78804 0.625 9.42393 0.888392 9.89277 1.35723C10.3616 1.82607 10.625 2.46196 10.625 3.125V4.375H13.75C14.2473 4.375 14.7242 4.57254 15.0758 4.92417C15.4275 5.27581 15.625 5.75272 15.625 6.25V9.375H16.875C17.538 9.375 18.1739 9.63839 18.6428 10.1072C19.1116 10.5761 19.375 11.212 19.375 11.875C19.375 12.538 19.1116 13.1739 18.6428 13.6428C18.1739 14.1116 17.538 14.375 16.875 14.375H15.625V17.5C15.625 17.9973 15.4275 18.4742 15.0758 18.8258C14.7242 19.1775 14.2473 19.375 13.75 19.375ZM10.625 18.125H13.75C13.9158 18.125 14.0747 18.0592 14.1919 17.9419C14.3092 17.8247 14.375 17.6658 14.375 17.5V13.75C14.375 13.5842 14.4408 13.4253 14.5581 13.3081C14.6753 13.1908 14.8342 13.125 15 13.125H16.875C17.2065 13.125 17.5245 12.9933 17.7589 12.7589C17.9933 12.5245 18.125 12.2065 18.125 11.875C18.125 11.5435 17.9933 11.2255 17.7589 10.9911C17.5245 10.7567 17.2065 10.625 16.875 10.625H15C14.8342 10.625 14.6753 10.5592 14.5581 10.4419C14.4408 10.3247 14.375 10.1658 14.375 10V6.25C14.375 6.08424 14.3092 5.92527 14.1919 5.80806C14.0747 5.69085 13.9158 5.625 13.75 5.625H10C9.83424 5.625 9.67527 5.55915 9.55806 5.44194C9.44085 5.32473 9.375 5.16576 9.375 5V3.125C9.375 2.79348 9.2433 2.47554 9.00888 2.24112C8.77446 2.0067 8.45652 1.875 8.125 1.875C7.79348 1.875 7.47554 2.0067 7.24112 2.24112C7.0067 2.47554 6.875 2.79348 6.875 3.125V5C6.875 5.16576 6.80915 5.32473 6.69194 5.44194C6.57473 5.55915 6.41576 5.625 6.25 5.625H2.5C2.33424 5.625 2.17527 5.69085 2.05806 5.80806C1.94085 5.92527 1.875 6.08424 1.875 6.25V9.375H3.125C3.78804 9.375 4.42393 9.63839 4.89277 10.1072C5.36161 10.5761 5.625 11.212 5.625 11.875C5.625 12.538 5.36161 13.1739 4.89277 13.6428C4.42393 14.1116 3.78804 14.375 3.125 14.375H1.875V17.5C1.875 17.6658 1.94085 17.8247 2.05806 17.9419C2.17527 18.0592 2.33424 18.125 2.5 18.125H5.625V16.875C5.625 16.212 5.88839 15.5761 6.35723 15.1072C6.82607 14.6384 7.46196 14.375 8.125 14.375C8.78804 14.375 9.42393 14.6384 9.89277 15.1072C10.3616 15.5761 10.625 16.212 10.625 16.875V18.125Z" fill="white" fill-opacity="0.9"/>
</g>
<defs>
<clipPath id="clip0_5670_110662">
<rect width="20" height="20" fill="white"/>
</clipPath>
</defs>
</svg>
