<svg width="20" height="20" viewBox="0 0 20 20" fill="none" xmlns="http://www.w3.org/2000/svg">
<path d="M8.48927 0.157448C5.84201 0.710613 3.69552 2.83655 3.13072 5.50026C2.6538 7.74956 3.2415 10.0078 4.7431 11.6958C5.47712 12.521 5.89806 13.6101 5.89806 14.6871V15.859C5.89806 16.6387 6.40849 17.3011 7.11263 17.5305C7.34419 18.8987 8.53169 19.9996 9.99962 19.9996C11.4672 19.9996 12.655 18.899 12.8866 17.5305C13.5908 17.3011 14.1012 16.6387 14.1012 15.859V14.6871C14.1012 13.608 14.5235 12.5319 15.2903 11.6571C16.4127 10.3766 17.0309 8.73362 17.0309 7.03089C17.0309 2.59475 12.9704 -0.778723 8.48927 0.157448ZM9.99962 18.8278C9.24642 18.8278 8.58603 18.3095 8.34216 17.6129H11.657C11.4132 18.3095 10.7528 18.8278 9.99962 18.8278ZM12.9293 15.859C12.9293 16.1821 12.6665 16.445 12.3434 16.445H7.65587C7.33279 16.445 7.06994 16.1821 7.06994 15.859V15.2731H12.9293V15.859ZM14.4091 10.8847C13.5919 11.817 13.0891 12.9412 12.9615 14.1012H7.03783C6.91041 12.9406 6.40892 11.8053 5.61877 10.917C4.36728 9.51011 3.87826 7.62436 4.27712 5.74335C4.74271 3.54749 6.53177 1.7637 8.729 1.3046C12.4799 0.52073 15.859 3.33761 15.859 7.03089C15.859 8.44932 15.3441 9.81796 14.4091 10.8847Z" fill="white" fill-opacity="0.9"/>
</svg>
