<svg width="20" height="20" viewBox="0 0 20 20" fill="none" xmlns="http://www.w3.org/2000/svg">
<path d="M12.0374 18.0614H12.0309C11.88 18.0601 11.7334 18.011 11.6122 17.9211C11.4909 17.8313 11.4012 17.7054 11.3559 17.5614L7.9338 6.60998L5.36808 14.3078C5.32341 14.4417 5.24007 14.5594 5.12858 14.646C5.01709 14.7326 4.88245 14.7842 4.74165 14.7943C4.6005 14.8056 4.45922 14.7741 4.33616 14.7041C4.21311 14.634 4.11398 14.5286 4.05165 14.4014L2.61665 11.5307H1.42522C1.23578 11.5307 1.0541 11.4554 0.920147 11.3215C0.786192 11.1875 0.710938 11.0059 0.710938 10.8164C0.710938 10.627 0.786192 10.4453 0.920147 10.3113C1.0541 10.1774 1.23578 10.1021 1.42522 10.1021H3.05808C3.19142 10.1014 3.32231 10.138 3.43592 10.2078C3.54953 10.2776 3.64133 10.3778 3.70094 10.4971L4.56165 12.2193L7.27808 4.05998C7.32547 3.91769 7.41645 3.79393 7.53812 3.70624C7.65978 3.61855 7.80596 3.57138 7.95594 3.57141H7.96237C8.11327 3.57276 8.25987 3.62187 8.38113 3.7117C8.5024 3.80152 8.5921 3.92745 8.63737 4.07141L12.0595 15.0207L14.6252 7.32498C14.6699 7.19098 14.7533 7.07324 14.8649 6.98664C14.9765 6.90004 15.1113 6.84848 15.2522 6.83846C15.3931 6.82845 15.5338 6.86043 15.6565 6.93037C15.7792 7.00032 15.8785 7.10508 15.9417 7.23141L17.3767 10.1021H18.5681C18.7575 10.1021 18.9392 10.1774 19.0732 10.3113C19.2071 10.4453 19.2824 10.627 19.2824 10.8164C19.2824 11.0059 19.2071 11.1875 19.0732 11.3215C18.9392 11.4554 18.7575 11.5307 18.5681 11.5307H16.9352C16.8025 11.5308 16.6724 11.4938 16.5594 11.4241C16.4465 11.3543 16.3553 11.2544 16.2959 11.1357L15.4388 9.41284L12.7152 17.5714C12.6681 17.714 12.5772 17.838 12.4555 17.926C12.3338 18.014 12.1875 18.0613 12.0374 18.0614Z" fill="white" fill-opacity="0.9"/>
</svg>
