<svg width="20" height="20" viewBox="0 0 20 20" fill="none" xmlns="http://www.w3.org/2000/svg">
<path fill-rule="evenodd" clip-rule="evenodd" d="M14.4081 3.57733C14.0827 3.90277 14.0827 4.4304 14.4081 4.75584L15.4856 5.83325H10.8307C8.98981 5.83325 7.4974 7.32564 7.4974 9.16659V9.99992C7.4974 10.4602 7.8705 10.8333 8.33073 10.8333C8.79098 10.8333 9.16406 10.4602 9.16406 9.99992V9.16659C9.16406 8.24611 9.91023 7.49992 10.8307 7.49992H15.4856L14.4081 8.57734C14.0827 8.90275 14.0827 9.43042 14.4081 9.75584C14.7336 10.0813 15.2612 10.0813 15.5866 9.75584L18.0866 7.25584C18.4121 6.9304 18.4121 6.40277 18.0866 6.07733L15.5866 3.57733C15.2612 3.25189 14.7336 3.25189 14.4081 3.57733ZM11.6641 9.16659C11.2038 9.16659 10.8307 9.53967 10.8307 9.99992V10.8333C10.8307 11.7538 10.0846 12.4999 9.16406 12.4999H4.50924L5.58665 11.4225C5.91209 11.0971 5.91209 10.5694 5.58665 10.244C5.26121 9.91859 4.73358 9.91859 4.40814 10.244L1.90814 12.744C1.5827 13.0694 1.5827 13.5971 1.90814 13.9225L4.40814 16.4225C4.73358 16.7479 5.26121 16.7479 5.58665 16.4225C5.91209 16.0971 5.91209 15.5694 5.58665 15.244L4.50924 14.1666H9.16406C11.005 14.1666 12.4974 12.6742 12.4974 10.8333V9.99992C12.4974 9.53967 12.1243 9.16659 11.6641 9.16659Z" fill="white" fill-opacity="0.9"/>
</svg>
