<svg width="20" height="20" viewBox="0 0 20 20" fill="none" xmlns="http://www.w3.org/2000/svg">
<path fill-rule="evenodd" clip-rule="evenodd" d="M8.1224 10.625L5.6224 12.5C5.30656 12.7366 4.88406 12.775 4.53156 12.5983C4.17906 12.4216 3.95573 12.0608 3.95573 11.6666V10.625H2.91406C2.41656 10.625 1.9399 10.4275 1.58823 10.0758C1.23656 9.72412 1.03906 9.24746 1.03906 8.74996V4.16663C1.03906 3.13079 1.87823 2.29163 2.91406 2.29163H10.4141C11.4499 2.29163 12.2891 3.13079 12.2891 4.16663V8.74996C12.2891 9.78579 11.4499 10.625 10.4141 10.625H8.1224ZM5.20573 11.25L7.42823 9.58329C7.60823 9.44829 7.8274 9.37496 8.05323 9.37496H10.4141C10.7591 9.37496 11.0391 9.09496 11.0391 8.74996V4.16663C11.0391 3.82163 10.7591 3.54163 10.4141 3.54163H2.91406C2.56906 3.54163 2.28906 3.82163 2.28906 4.16663V8.74996C2.28906 8.91579 2.3549 9.07496 2.4724 9.19162C2.58906 9.30912 2.74823 9.37496 2.91406 9.37496H4.16406C4.73906 9.37496 5.20573 9.84162 5.20573 10.4166V11.25Z" fill="white" fill-opacity="0.9"/>
<path fill-rule="evenodd" clip-rule="evenodd" d="M14.7865 16.25V15.4166C14.7865 14.8416 15.2531 14.375 15.8281 14.375H17.0781C17.244 14.375 17.4031 14.3091 17.5198 14.1916C17.6373 14.075 17.7031 13.9158 17.7031 13.75V9.16663C17.7031 8.82163 17.4231 8.54163 17.0781 8.54163H13.7448C13.3998 8.54163 13.1198 8.26163 13.1198 7.91663C13.1198 7.57163 13.3998 7.29163 13.7448 7.29163H17.0781C18.114 7.29163 18.9531 8.13079 18.9531 9.16663V13.75C18.9531 14.2475 18.7556 14.7241 18.404 15.0758C18.0523 15.4275 17.5756 15.625 17.0781 15.625H16.0365V16.6666C16.0365 17.0608 15.8131 17.4216 15.4606 17.5983C15.1081 17.775 14.6856 17.7366 14.3698 17.5L11.8698 15.625H9.57812C8.54229 15.625 7.70312 14.7858 7.70312 13.75V12.2916C7.70312 11.9466 7.98313 11.6666 8.32812 11.6666C8.67312 11.6666 8.95312 11.9466 8.95312 12.2916V13.75C8.95312 14.095 9.23312 14.375 9.57812 14.375H11.939C12.1648 14.375 12.384 14.4483 12.564 14.5833L14.7865 16.25Z" fill="white" fill-opacity="0.9"/>
</svg>
