<svg width="56" height="56" viewBox="0 0 56 56" fill="none" xmlns="http://www.w3.org/2000/svg">
<g clip-path="url(#clip0_5001_168)">
<path d="M24.5015 16.5092C24.1439 16.4581 24.1269 16.441 24.2972 16.424C24.6207 16.3729 25.3699 16.441 25.8978 16.5602C27.1238 16.8497 28.2306 17.5989 29.4055 18.9101L29.712 19.2677L30.1548 19.1996C32.0449 18.8931 33.986 19.1315 35.6037 19.8807C36.0464 20.085 36.7445 20.4937 36.8297 20.5958C36.8637 20.6299 36.9148 20.8513 36.9489 21.0726C37.0681 21.8729 37.017 22.4689 36.7616 22.9287C36.6253 23.1841 36.6253 23.2522 36.7105 23.4736C36.7786 23.6438 36.9829 23.763 37.1702 23.763C37.5789 23.763 38.0046 23.116 38.2089 22.2135L38.2941 21.8559L38.4473 22.0262C39.3157 22.9968 39.9969 24.342 40.099 25.2955L40.1331 25.551L39.9798 25.3296C39.7244 24.938 39.486 24.6825 39.1625 24.4612C38.5836 24.0695 37.9706 23.9503 36.3529 23.8652C34.8885 23.7801 34.0541 23.6609 33.2368 23.3884C31.8405 22.9287 31.1253 22.3327 29.4736 20.1361C28.7414 19.1655 28.2817 18.6376 27.8219 18.1949C26.8173 17.2243 25.8127 16.7135 24.5015 16.5092Z" fill="white"/>
<path d="M37.1873 18.6718C37.2214 18.0248 37.3065 17.5991 37.4938 17.2074C37.5619 17.0542 37.6301 16.918 37.6471 16.918C37.6641 16.918 37.6301 17.0372 37.579 17.1734C37.4427 17.548 37.4257 18.0759 37.5109 18.6718C37.63 19.4381 37.6811 19.5403 38.4985 20.3746C38.8731 20.7663 39.3158 21.2601 39.4861 21.4644L39.7756 21.839L39.4861 21.5666C39.1285 21.226 38.3112 20.579 38.1239 20.4938C38.0047 20.4257 37.9876 20.4257 37.9025 20.5108C37.8344 20.579 37.8174 20.6811 37.8174 21.1749C37.8003 21.9412 37.6982 22.418 37.4427 22.9118C37.3065 23.1672 37.2895 23.1161 37.4087 22.8266C37.4938 22.6053 37.5109 22.5031 37.5109 21.7709C37.5109 20.2895 37.3406 19.9319 36.3019 19.3359C36.0465 19.1827 35.6037 18.9613 35.3483 18.8421C35.0759 18.7229 34.8715 18.6208 34.8886 18.6208C34.9226 18.5867 35.9273 18.8762 36.3189 19.0465C36.9149 19.2848 37.017 19.3019 37.0852 19.2848C37.1362 19.2338 37.1703 19.0975 37.1873 18.6718Z" fill="white"/>
<path d="M25.1997 21.2089C24.4845 20.2213 24.0248 18.6888 24.127 17.5479L24.161 17.1903L24.3313 17.2244C24.6378 17.2754 25.1657 17.4798 25.4211 17.633C26.1022 18.0417 26.4087 18.6036 26.6982 19.9999C26.7833 20.4086 26.9025 20.8854 26.9536 21.0386C27.0387 21.294 27.3623 21.89 27.6347 22.2646C27.822 22.5371 27.7028 22.6733 27.2771 22.6392C26.6301 22.5711 25.7616 21.9751 25.1997 21.2089Z" fill="white"/>
<path d="M36.3188 28.616C32.9473 27.2538 31.7554 26.0788 31.7554 24.0866C31.7554 23.7971 31.7724 23.5587 31.7724 23.5587C31.7894 23.5587 31.9086 23.6609 32.0619 23.7801C32.743 24.325 33.5092 24.5634 35.6377 24.8699C36.8808 25.0572 37.5959 25.1934 38.243 25.4148C40.3034 26.0959 41.5805 27.4922 41.887 29.3822C41.9721 29.9271 41.921 30.9658 41.7848 31.5107C41.6656 31.9364 41.325 32.7197 41.2399 32.7367C41.2229 32.7367 41.1888 32.6516 41.1888 32.5154C41.1548 31.8002 40.7972 31.1191 40.2012 30.5912C39.486 29.9782 38.5665 29.5185 36.3188 28.616Z" fill="white"/>
<path d="M33.9348 29.1779C33.9008 28.9224 33.8156 28.5989 33.7645 28.4627L33.6794 28.2073L33.8327 28.3946C34.054 28.65 34.2243 28.9565 34.3775 29.3822C34.4967 29.7057 34.4967 29.8079 34.4967 30.3358C34.4967 30.8466 34.4797 30.9658 34.3775 31.2553C34.2073 31.715 34.0029 32.0385 33.6624 32.3961C33.0494 33.0262 32.2491 33.3667 31.1082 33.52C30.9039 33.537 30.3249 33.5881 29.8141 33.6221C28.537 33.6902 27.6856 33.8265 26.9193 34.0989C26.8172 34.133 26.715 34.167 26.698 34.15C26.6639 34.1159 27.1918 33.8094 27.6175 33.6051C28.2135 33.3156 28.8265 33.1624 30.1717 32.924C30.8357 32.8218 31.5169 32.6856 31.6871 32.6175C33.3729 32.0896 34.2073 30.7785 33.9348 29.1779Z" fill="white"/>
<path d="M35.4845 31.9195C35.0418 30.9489 34.9396 30.0294 35.178 29.161C35.2121 29.0759 35.2461 28.9907 35.2802 28.9907C35.3142 28.9907 35.4164 29.0418 35.5186 29.1099C35.7229 29.2461 36.1486 29.4845 37.2384 30.0805C38.6176 30.8297 39.4009 31.4087 39.9458 32.0728C40.4226 32.6517 40.7121 33.3158 40.8483 34.1331C40.9334 34.5929 40.8823 35.6997 40.7632 36.1595C40.3885 37.6068 39.5371 38.7647 38.2941 39.4288C38.1068 39.531 37.9536 39.5991 37.9365 39.5991C37.9195 39.5991 37.9876 39.4288 38.0898 39.2245C38.4984 38.356 38.5495 37.5217 38.243 36.5852C38.0557 36.0062 37.6641 35.3081 36.8808 34.1331C35.9443 32.7709 35.7229 32.4133 35.4845 31.9195Z" fill="white"/>
<path d="M22.7986 37.1302C24.0587 36.0745 25.6082 35.3252 27.0386 35.0868C27.6516 34.9847 28.6732 35.0187 29.2352 35.172C30.1376 35.4104 30.955 35.9212 31.3807 36.5512C31.7893 37.1642 31.9766 37.6921 32.164 38.867C32.2321 39.3268 32.3172 39.8036 32.3342 39.9057C32.4705 40.5187 32.7429 40.9955 33.0835 41.2509C33.6113 41.6426 34.5308 41.6596 35.4333 41.319C35.5866 41.268 35.7228 41.2169 35.7228 41.2339C35.7568 41.268 35.2971 41.5745 34.9906 41.7277C34.5649 41.9491 34.2243 42.0172 33.7646 42.0172C32.9472 42.0172 32.2491 41.5915 31.6872 40.7401C31.568 40.5698 31.3296 40.076 31.1253 39.6163C30.5293 38.237 30.2228 37.8283 29.5246 37.3686C28.9116 36.9769 28.1283 36.8918 27.5324 37.1813C26.7491 37.5559 26.5448 38.5605 27.0896 39.1735C27.311 39.4289 27.7197 39.6333 28.0602 39.6844C28.6903 39.7695 29.2352 39.2757 29.2352 38.6457C29.2352 38.237 29.0819 37.9986 28.6732 37.8113C28.1283 37.5729 27.5324 37.8454 27.5494 38.3732C27.5494 38.5946 27.6516 38.7308 27.8729 38.833C28.0092 38.9011 28.0092 38.9011 27.907 38.8841C27.4132 38.7819 27.294 38.1689 27.6856 37.7772C28.1624 37.3005 29.167 37.5048 29.5076 38.1689C29.6438 38.4413 29.6609 38.9862 29.5417 39.3268C29.2522 40.076 28.4348 40.4676 27.6005 40.2463C27.0386 40.093 26.8002 39.9398 26.1191 39.2416C24.9271 38.0156 24.4674 37.7772 22.7646 37.5218L22.441 37.4707L22.7986 37.1302Z" fill="white"/>
<path fill-rule="evenodd" clip-rule="evenodd" d="M13.8417 9.7322C17.8092 14.5511 23.9222 22.0433 24.2287 22.452C24.4841 22.7926 24.382 23.1161 23.9563 23.3545C23.7179 23.4907 23.2241 23.6269 22.9857 23.6269C22.7132 23.6269 22.3897 23.4907 22.1684 23.2693C22.0151 23.1161 21.351 22.1455 19.8526 19.8127C18.7117 18.0248 17.7411 16.5433 17.7241 16.5263C17.656 16.4923 17.656 16.4923 19.7334 20.2043C21.0445 22.5372 21.4702 23.3715 21.4702 23.4737C21.4702 23.695 21.4021 23.8142 21.1297 24.1207C20.6699 24.6316 20.4656 25.2105 20.3123 26.4195C20.142 27.7647 19.6823 28.7183 18.3711 30.3359C17.6049 31.2895 17.4857 31.4597 17.2984 31.8514C17.06 32.3282 16.9919 32.6006 16.9578 33.2136C16.9238 33.8607 16.9919 34.2693 17.1792 34.8824C17.3495 35.4272 17.5368 35.7848 17.9965 36.483C18.3882 37.096 18.6266 37.5557 18.6266 37.726C18.6266 37.8622 18.6606 37.8622 19.2736 37.726C20.738 37.3854 21.947 36.8065 22.6111 36.0913C23.0197 35.6486 23.1219 35.4102 23.1219 34.7972C23.1219 34.4056 23.1049 34.3204 23.0027 34.082C22.8324 33.7074 22.5089 33.4009 21.8108 32.9241C20.8913 32.2941 20.4996 31.7833 20.3975 31.1022C20.3123 30.5232 20.4145 30.1316 20.9253 29.0588C21.4532 27.952 21.5894 27.4923 21.6745 26.3684C21.7256 25.6532 21.8108 25.3638 22.0151 25.1424C22.2365 24.904 22.4238 24.8189 22.9516 24.7508C23.8201 24.6316 24.382 24.4102 24.8247 23.9845C25.2163 23.6269 25.3866 23.2693 25.4036 22.7415L25.4207 22.3498L25.1993 22.1115C24.399 21.1919 13.3139 9 13.2628 9C13.2458 9 13.5182 9.32353 13.8417 9.7322ZM19.0693 33.9458C19.2566 33.6223 19.1544 33.2136 18.8479 33.0093C18.5584 32.822 18.1157 32.9071 18.1157 33.1625C18.1157 33.2306 18.1498 33.2988 18.2519 33.3328C18.4052 33.418 18.4222 33.5031 18.303 33.6904C18.1838 33.8777 18.1838 34.048 18.3371 34.1672C18.5755 34.3545 18.899 34.2523 19.0693 33.9458Z" fill="white"/>
<path fill-rule="evenodd" clip-rule="evenodd" d="M25.9659 24.9893C25.5573 25.1085 25.1656 25.5512 25.0464 25.9939C24.9783 26.2663 25.0124 26.7602 25.1316 26.9134C25.3189 27.1518 25.4892 27.2199 25.9659 27.2199C26.9025 27.2199 27.7028 26.8112 27.7879 26.3174C27.8731 25.9088 27.5155 25.3468 27.0217 25.0914C26.7662 24.9552 26.2384 24.9041 25.9659 24.9893ZM27.0557 25.8406C27.1919 25.6363 27.1409 25.415 26.8854 25.2617C26.4257 24.9722 25.7275 25.2106 25.7275 25.6533C25.7275 25.8747 26.0851 26.1131 26.4257 26.1131C26.6471 26.1131 26.9536 25.9769 27.0557 25.8406Z" fill="white"/>
</g>
<defs>
<clipPath id="clip0_5001_168">
<rect width="28.6579" height="33" fill="white" transform="translate(13.2632 9)"/>
</clipPath>
</defs>
</svg>
