<svg width="18" height="22" viewBox="0 0 18 22" fill="none" xmlns="http://www.w3.org/2000/svg">
<path d="M14.3625 7.4525H5.4675V5.5625C5.4675 3.5975 7.065 2 9.03 2C10.47 2 11.7525 2.855 12.315 4.175C12.48 4.5575 12.915 4.7375 13.2975 4.5725C13.68 4.415 13.86 3.9725 13.695 3.59C12.9 1.715 11.07 0.5 9.03 0.5C6.24 0.5 3.9675 2.7725 3.9675 5.5625V7.4525H3.6375C1.98 7.4525 0.637497 8.795 0.637497 10.4525V18.5C0.637497 20.1575 1.98 21.5 3.6375 21.5H14.3625C16.02 21.5 17.3625 20.1575 17.3625 18.5V10.4525C17.3625 8.8025 16.02 7.4525 14.3625 7.4525ZM15.8625 18.5C15.8625 19.325 15.1875 20 14.3625 20H3.6375C2.8125 20 2.1375 19.325 2.1375 18.5V10.4525C2.1375 9.6275 2.8125 8.9525 3.6375 8.9525H14.3625C15.1875 8.9525 15.8625 9.6275 15.8625 10.4525V18.5ZM10.35 14.2625C10.35 14.7275 10.11 15.1475 9.75 15.3875V17.225C9.75 17.6375 9.4125 17.975 9 17.975C8.5875 17.975 8.25 17.6375 8.25 17.225V15.3875C7.89 15.1475 7.65 14.7275 7.65 14.2625C7.65 13.52 8.2575 12.9125 9 12.9125C9.7425 12.9125 10.35 13.5125 10.35 14.2625Z" fill="white" fill-opacity="0.9"/>
</svg>
