<svg width="165" height="225" viewBox="0 0 165 225" fill="none" xmlns="http://www.w3.org/2000/svg">
<mask id="mask0_111_2821" style="mask-type:alpha" maskUnits="userSpaceOnUse" x="0" y="0" width="225" height="225">
<path d="M81.7164 225L77.2388 189C74.8134 188.062 72.528 186.938 70.3825 185.625C68.2369 184.312 66.1381 182.906 64.0858 181.406L30.7836 195.469L0 142.031L28.8246 120.094C28.6381 118.781 28.5448 117.516 28.5448 116.297V108.703C28.5448 107.484 28.6381 106.219 28.8246 104.906L0 82.9688L30.7836 29.5312L64.0858 43.5938C66.1381 42.0938 68.2836 40.6875 70.5224 39.375C72.7612 38.0625 75 36.9375 77.2388 36L81.7164 0H143.284L147.761 36C150.187 36.9375 152.472 38.0625 154.618 39.375C156.763 40.6875 158.862 42.0938 160.914 43.5938L194.216 29.5312L225 82.9688L196.175 104.906C196.362 106.219 196.455 107.484 196.455 108.703V116.297C196.455 117.516 196.269 118.781 195.896 120.094L224.72 142.031L193.937 195.469L160.914 181.406C158.862 182.906 156.716 184.312 154.478 185.625C152.239 186.938 150 188.062 147.761 189L143.284 225H81.7164ZM101.306 202.5H123.414L127.332 172.688C133.116 171.188 138.479 168.984 143.424 166.078C148.368 163.172 152.892 159.656 156.996 155.531L184.701 167.062L195.616 147.938L171.549 129.656C172.481 127.031 173.134 124.266 173.507 121.359C173.881 118.453 174.067 115.5 174.067 112.5C174.067 109.5 173.881 106.547 173.507 103.641C173.134 100.734 172.481 97.9688 171.549 95.3438L195.616 77.0625L184.701 57.9375L156.996 69.75C152.892 65.4375 148.368 61.8281 143.424 58.9219C138.479 56.0156 133.116 53.8125 127.332 52.3125L123.694 22.5H101.586L97.6679 52.3125C91.8843 53.8125 86.5205 56.0156 81.5765 58.9219C76.6325 61.8281 72.1082 65.3438 68.0037 69.4688L40.2985 57.9375L29.3843 77.0625L53.4515 95.0625C52.5187 97.875 51.8657 100.688 51.4925 103.5C51.1194 106.312 50.9328 109.312 50.9328 112.5C50.9328 115.5 51.1194 118.406 51.4925 121.219C51.8657 124.031 52.5187 126.844 53.4515 129.656L29.3843 147.938L40.2985 167.062L68.0037 155.25C72.1082 159.562 76.6325 163.172 81.5765 166.078C86.5205 168.984 91.8843 171.188 97.6679 172.688L101.306 202.5ZM113.06 151.875C123.881 151.875 133.116 148.031 140.765 140.344C148.414 132.656 152.239 123.375 152.239 112.5C152.239 101.625 148.414 92.3438 140.765 84.6562C133.116 76.9688 123.881 73.125 113.06 73.125C102.052 73.125 92.7705 76.9688 85.2146 84.6562C77.6586 92.3438 73.8806 101.625 73.8806 112.5C73.8806 123.375 77.6586 132.656 85.2146 140.344C92.7705 148.031 102.052 151.875 113.06 151.875Z" fill="url(#paint0_linear_111_2821)" style=""/>
</mask>
<g mask="url(#mask0_111_2821)">
<path d="M81.7164 225L77.2388 189C74.8134 188.063 72.528 186.937 70.3825 185.625C68.2369 184.313 66.1381 182.906 64.0858 181.406L30.7836 195.469L0 142.031L28.8246 120.094C28.6381 118.781 28.5448 117.516 28.5448 116.297V108.703C28.5448 107.484 28.6381 106.219 28.8246 104.906L0 82.9688L30.7836 29.5312L64.0858 43.5938C66.1381 42.0937 68.2836 40.6875 70.5224 39.375C72.7612 38.0625 75 36.9375 77.2388 36L81.7164 0H143.284L147.761 36C150.187 36.9375 152.472 38.0625 154.618 39.375C156.763 40.6875 158.862 42.0937 160.914 43.5938L194.216 29.5312L225 82.9688L196.175 104.906C196.362 106.219 196.455 107.484 196.455 108.703V116.297C196.455 117.516 196.269 118.781 195.896 120.094L224.72 142.031L193.937 195.469L160.914 181.406C158.862 182.906 156.716 184.313 154.478 185.625C152.239 186.937 150 188.063 147.761 189L143.284 225H81.7164ZM101.306 202.5H123.414L127.332 172.688C133.116 171.187 138.479 168.984 143.424 166.078C148.368 163.172 152.892 159.656 156.996 155.531L184.701 167.062L195.616 147.938L171.549 129.656C172.481 127.031 173.134 124.266 173.507 121.359C173.881 118.453 174.067 115.5 174.067 112.5C174.067 109.5 173.881 106.547 173.507 103.641C173.134 100.734 172.481 97.9687 171.549 95.3438L195.616 77.0625L184.701 57.9375L156.996 69.75C152.892 65.4375 148.368 61.8281 143.424 58.9219C138.479 56.0156 133.116 53.8125 127.332 52.3125L123.694 22.5H101.586L97.6679 52.3125C91.8843 53.8125 86.5205 56.0156 81.5765 58.9219C76.6325 61.8281 72.1082 65.3437 68.0037 69.4688L40.2985 57.9375L29.3843 77.0625L53.4515 95.0625C52.5187 97.875 51.8657 100.688 51.4925 103.5C51.1194 106.312 50.9328 109.313 50.9328 112.5C50.9328 115.5 51.1194 118.406 51.4925 121.219C51.8657 124.031 52.5187 126.844 53.4515 129.656L29.3843 147.938L40.2985 167.062L68.0037 155.25C72.1082 159.562 76.6325 163.172 81.5765 166.078C86.5205 168.984 91.8843 171.187 97.6679 172.688L101.306 202.5ZM113.06 151.875C123.881 151.875 133.116 148.031 140.765 140.344C148.414 132.656 152.239 123.375 152.239 112.5C152.239 101.625 148.414 92.3438 140.765 84.6562C133.116 76.9687 123.881 73.125 113.06 73.125C102.052 73.125 92.7705 76.9687 85.2146 84.6562C77.6586 92.3438 73.8806 101.625 73.8806 112.5C73.8806 123.375 77.6586 132.656 85.2146 140.344C92.7705 148.031 102.052 151.875 113.06 151.875Z" fill="#5B5F69" style="fill:#5B5F69;fill:color(display-p3 0.3550 0.3720 0.4119);fill-opacity:1;"/>
</g>
<defs>
<linearGradient id="paint0_linear_111_2821" x1="184.521" y1="11.9457" x2="37.315" y2="226.39" gradientUnits="userSpaceOnUse">
<stop stop-color="#2A2D37" style="stop-color:#2A2D37;stop-color:color(display-p3 0.1634 0.1767 0.2167);stop-opacity:1;"/>
<stop offset="1" stop-color="#2A2D37" stop-opacity="0" style="stop-color:none;stop-opacity:0;"/>
</linearGradient>
</defs>
</svg>
