<svg width="167" height="213" viewBox="0 0 167 213" fill="none" xmlns="http://www.w3.org/2000/svg">
<mask id="mask0_261_351" style="mask-type:alpha" maskUnits="userSpaceOnUse" x="0" y="0" width="212" height="213">
<path d="M205.897 130.463L130.013 206.61C127.89 208.74 125.502 210.338 122.849 211.403C120.195 212.468 117.542 213 114.889 213C112.235 213 109.582 212.468 106.929 211.403C104.275 210.338 101.887 208.74 99.7647 206.61L6.10263 112.624C4.15686 110.671 2.65332 108.408 1.59199 105.834C0.530663 103.261 0 100.554 0 97.7138V21.3C0 15.4425 2.07843 10.4281 6.23529 6.25688C10.3922 2.08562 15.3892 0 21.2265 0H97.3767C100.207 0 102.949 0.576875 105.602 1.73063C108.255 2.88438 110.555 4.4375 112.501 6.39L205.897 100.376C208.02 102.506 209.568 104.903 210.541 107.565C211.514 110.228 212 112.89 212 115.553C212 118.215 211.514 120.833 210.541 123.407C209.568 125.981 208.02 128.333 205.897 130.463ZM114.889 191.7L190.773 115.553L97.1114 21.3H21.2265V97.4475L114.889 191.7ZM47.7597 63.9C52.1819 63.9 55.9408 62.3469 59.0363 59.2406C62.1318 56.1344 63.6796 52.3625 63.6796 47.925C63.6796 43.4875 62.1318 39.7156 59.0363 36.6094C55.9408 33.5031 52.1819 31.95 47.7597 31.95C43.3375 31.95 39.5786 33.5031 36.4831 36.6094C33.3876 39.7156 31.8398 43.4875 31.8398 47.925C31.8398 52.3625 33.3876 56.1344 36.4831 59.2406C39.5786 62.3469 43.3375 63.9 47.7597 63.9Z" fill="url(#paint0_linear_261_351)" style=""/>
</mask>
<g mask="url(#mask0_261_351)">
<path d="M205.897 130.463L130.013 206.61C127.89 208.74 125.502 210.337 122.849 211.402C120.195 212.467 117.542 213 114.889 213C112.235 213 109.582 212.467 106.929 211.402C104.275 210.337 101.887 208.74 99.7647 206.61L6.10263 112.624C4.15686 110.671 2.65332 108.408 1.59199 105.834C0.530663 103.261 0 100.554 0 97.7137V21.3C0 15.4425 2.07843 10.4281 6.23529 6.25688C10.3922 2.08563 15.3892 0 21.2265 0H97.3767C100.207 0 102.949 0.576875 105.602 1.73063C108.255 2.88438 110.555 4.4375 112.501 6.39L205.897 100.376C208.02 102.506 209.568 104.902 210.541 107.565C211.514 110.227 212 112.89 212 115.552C212 118.215 211.514 120.833 210.541 123.407C209.568 125.981 208.02 128.333 205.897 130.463ZM114.889 191.7L190.773 115.552L97.1114 21.3H21.2265V97.4475L114.889 191.7ZM47.7597 63.9C52.1819 63.9 55.9408 62.3469 59.0363 59.2406C62.1318 56.1344 63.6796 52.3625 63.6796 47.925C63.6796 43.4875 62.1318 39.7156 59.0363 36.6094C55.9408 33.5031 52.1819 31.95 47.7597 31.95C43.3375 31.95 39.5786 33.5031 36.4831 36.6094C33.3876 39.7156 31.8398 43.4875 31.8398 47.925C31.8398 52.3625 33.3876 56.1344 36.4831 59.2406C39.5786 62.3469 43.3375 63.9 47.7597 63.9Z" fill="#5B5F69" style="fill:#5B5F69;fill:color(display-p3 0.3569 0.3725 0.4118);fill-opacity:1;"/>
</g>
<defs>
<linearGradient id="paint0_linear_261_351" x1="173.86" y1="11.3086" x2="28.3181" y2="182.358" gradientUnits="userSpaceOnUse">
<stop stop-color="#2A2D37" style="stop-color:#2A2D37;stop-color:color(display-p3 0.1634 0.1767 0.2167);stop-opacity:1;"/>
<stop offset="1" stop-color="#2A2D37" stop-opacity="0" style="stop-color:none;stop-opacity:0;"/>
</linearGradient>
</defs>
</svg>
