<svg width="56" height="56" viewBox="0 0 56 56" fill="none" xmlns="http://www.w3.org/2000/svg">
<rect width="56" height="56" rx="11.2" fill="#181A1E" style="fill:#181A1E;fill:color(display-p3 0.0941 0.1020 0.1176);fill-opacity:1;"/>
<path d="M33.75 36.25C32.7 36.25 31.8125 35.8875 31.0875 35.1625C30.3625 34.4375 30 33.55 30 32.5C30 31.45 30.3625 30.5625 31.0875 29.8375C31.8125 29.1125 32.7 28.75 33.75 28.75C34.8 28.75 35.6875 29.1125 36.4125 29.8375C37.1375 30.5625 37.5 31.45 37.5 32.5C37.5 33.55 37.1375 34.4375 36.4125 35.1625C35.6875 35.8875 34.8 36.25 33.75 36.25ZM33.75 34.25C34.2333 34.25 34.6458 34.0792 34.9875 33.7375C35.3292 33.3958 35.5 32.9833 35.5 32.5C35.5 32.0167 35.3292 31.6042 34.9875 31.2625C34.6458 30.9208 34.2333 30.75 33.75 30.75C33.2667 30.75 32.8542 30.9208 32.5125 31.2625C32.1708 31.6042 32 32.0167 32 32.5C32 32.9833 32.1708 33.3958 32.5125 33.7375C32.8542 34.0792 33.2667 34.25 33.75 34.25ZM20 33.5V31.5H28V33.5H20ZM22.25 27.25C21.2 27.25 20.3125 26.8875 19.5875 26.1625C18.8625 25.4375 18.5 24.55 18.5 23.5C18.5 22.45 18.8625 21.5625 19.5875 20.8375C20.3125 20.1125 21.2 19.75 22.25 19.75C23.3 19.75 24.1875 20.1125 24.9125 20.8375C25.6375 21.5625 26 22.45 26 23.5C26 24.55 25.6375 25.4375 24.9125 26.1625C24.1875 26.8875 23.3 27.25 22.25 27.25ZM22.25 25.25C22.7333 25.25 23.1458 25.0792 23.4875 24.7375C23.8292 24.3958 24 23.9833 24 23.5C24 23.0167 23.8292 22.6042 23.4875 22.2625C23.1458 21.9208 22.7333 21.75 22.25 21.75C21.7667 21.75 21.3542 21.9208 21.0125 22.2625C20.6708 22.6042 20.5 23.0167 20.5 23.5C20.5 23.9833 20.6708 24.3958 21.0125 24.7375C21.3542 25.0792 21.7667 25.25 22.25 25.25ZM28 24.5V22.5H36V24.5H28Z" fill="#5F6368" style="fill:#5F6368;fill:color(display-p3 0.3725 0.3882 0.4078);fill-opacity:1;"/>
<path d="M33.75 36.25C32.7 36.25 31.8125 35.8875 31.0875 35.1625C30.3625 34.4375 30 33.55 30 32.5C30 31.45 30.3625 30.5625 31.0875 29.8375C31.8125 29.1125 32.7 28.75 33.75 28.75C34.8 28.75 35.6875 29.1125 36.4125 29.8375C37.1375 30.5625 37.5 31.45 37.5 32.5C37.5 33.55 37.1375 34.4375 36.4125 35.1625C35.6875 35.8875 34.8 36.25 33.75 36.25ZM33.75 34.25C34.2333 34.25 34.6458 34.0792 34.9875 33.7375C35.3292 33.3958 35.5 32.9833 35.5 32.5C35.5 32.0167 35.3292 31.6042 34.9875 31.2625C34.6458 30.9208 34.2333 30.75 33.75 30.75C33.2667 30.75 32.8542 30.9208 32.5125 31.2625C32.1708 31.6042 32 32.0167 32 32.5C32 32.9833 32.1708 33.3958 32.5125 33.7375C32.8542 34.0792 33.2667 34.25 33.75 34.25ZM20 33.5V31.5H28V33.5H20ZM22.25 27.25C21.2 27.25 20.3125 26.8875 19.5875 26.1625C18.8625 25.4375 18.5 24.55 18.5 23.5C18.5 22.45 18.8625 21.5625 19.5875 20.8375C20.3125 20.1125 21.2 19.75 22.25 19.75C23.3 19.75 24.1875 20.1125 24.9125 20.8375C25.6375 21.5625 26 22.45 26 23.5C26 24.55 25.6375 25.4375 24.9125 26.1625C24.1875 26.8875 23.3 27.25 22.25 27.25ZM22.25 25.25C22.7333 25.25 23.1458 25.0792 23.4875 24.7375C23.8292 24.3958 24 23.9833 24 23.5C24 23.0167 23.8292 22.6042 23.4875 22.2625C23.1458 21.9208 22.7333 21.75 22.25 21.75C21.7667 21.75 21.3542 21.9208 21.0125 22.2625C20.6708 22.6042 20.5 23.0167 20.5 23.5C20.5 23.9833 20.6708 24.3958 21.0125 24.7375C21.3542 25.0792 21.7667 25.25 22.25 25.25ZM28 24.5V22.5H36V24.5H28Z" fill="url(#paint0_linear_111_2954)" style=""/>
<defs>
<linearGradient id="paint0_linear_111_2954" x1="28" y1="19.75" x2="28" y2="36.25" gradientUnits="userSpaceOnUse">
<stop stop-color="#00CDDA" style="stop-color:#00CDDA;stop-color:color(display-p3 0.0000 0.8036 0.8549);stop-opacity:1;"/>
<stop offset="1" stop-color="#8FFF00" style="stop-color:#8FFF00;stop-color:color(display-p3 0.5600 1.0000 0.0000);stop-opacity:1;"/>
</linearGradient>
</defs>
</svg>
