<svg width="223" height="233" viewBox="0 0 223 233" fill="none" xmlns="http://www.w3.org/2000/svg">
<mask id="mask0_261_344" style="mask-type:alpha" maskUnits="userSpaceOnUse" x="0" y="0" width="268" height="233">
<path d="M215.105 233C200.295 233 187.776 227.881 177.55 217.643C167.324 207.405 162.211 194.873 162.211 180.045C162.211 165.218 167.324 152.686 177.55 142.448C187.776 132.21 200.295 127.091 215.105 127.091C229.916 127.091 242.434 132.21 252.661 142.448C262.887 152.686 268 165.218 268 180.045C268 194.873 262.887 207.405 252.661 217.643C242.434 227.881 229.916 233 215.105 233ZM215.105 204.758C221.923 204.758 227.741 202.345 232.561 197.52C237.38 192.696 239.789 186.871 239.789 180.045C239.789 173.22 237.38 167.395 232.561 162.57C227.741 157.746 221.923 155.333 215.105 155.333C208.288 155.333 202.469 157.746 197.65 162.57C192.831 167.395 190.421 173.22 190.421 180.045C190.421 186.871 192.831 192.696 197.65 197.52C202.469 202.345 208.288 204.758 215.105 204.758ZM21.1579 194.167V165.924H134V194.167H21.1579ZM52.8947 105.909C38.0842 105.909 25.5658 100.79 15.3395 90.5523C5.11316 80.3144 0 67.7818 0 52.9545C0 38.1273 5.11316 25.5947 15.3395 15.3568C25.5658 5.11894 38.0842 0 52.8947 0C67.7053 0 80.2237 5.11894 90.45 15.3568C100.676 25.5947 105.789 38.1273 105.789 52.9545C105.789 67.7818 100.676 80.3144 90.45 90.5523C80.2237 100.79 67.7053 105.909 52.8947 105.909ZM52.8947 77.6667C59.7123 77.6667 65.5307 75.2543 70.35 70.4295C75.1693 65.6048 77.5789 59.7798 77.5789 52.9545C77.5789 46.1293 75.1693 40.3043 70.35 35.4795C65.5307 30.6548 59.7123 28.2424 52.8947 28.2424C46.0772 28.2424 40.2588 30.6548 35.4395 35.4795C30.6202 40.3043 28.2105 46.1293 28.2105 52.9545C28.2105 59.7798 30.6202 65.6048 35.4395 70.4295C40.2588 75.2543 46.0772 77.6667 52.8947 77.6667ZM134 67.0758V38.8333H246.842V67.0758H134Z" fill="url(#paint0_linear_261_344)" style=""/>
</mask>
<g mask="url(#mask0_261_344)">
<path d="M215.105 233C200.295 233 187.776 227.881 177.55 217.643C167.324 207.405 162.211 194.873 162.211 180.045C162.211 165.218 167.324 152.686 177.55 142.448C187.776 132.21 200.295 127.091 215.105 127.091C229.916 127.091 242.434 132.21 252.661 142.448C262.887 152.686 268 165.218 268 180.045C268 194.873 262.887 207.405 252.661 217.643C242.434 227.881 229.916 233 215.105 233ZM215.105 204.758C221.923 204.758 227.741 202.345 232.561 197.52C237.38 192.696 239.789 186.871 239.789 180.045C239.789 173.22 237.38 167.395 232.561 162.57C227.741 157.746 221.923 155.333 215.105 155.333C208.288 155.333 202.469 157.746 197.65 162.57C192.831 167.395 190.421 173.22 190.421 180.045C190.421 186.871 192.831 192.696 197.65 197.52C202.469 202.345 208.288 204.758 215.105 204.758ZM21.1579 194.167V165.924H134V194.167H21.1579ZM52.8947 105.909C38.0842 105.909 25.5658 100.79 15.3395 90.5523C5.11316 80.3144 0 67.7818 0 52.9545C0 38.1273 5.11316 25.5947 15.3395 15.3568C25.5658 5.11894 38.0842 0 52.8947 0C67.7053 0 80.2237 5.11894 90.45 15.3568C100.676 25.5947 105.789 38.1273 105.789 52.9545C105.789 67.7818 100.676 80.3144 90.45 90.5523C80.2237 100.79 67.7053 105.909 52.8947 105.909ZM52.8947 77.6667C59.7123 77.6667 65.5307 75.2543 70.35 70.4295C75.1693 65.6048 77.5789 59.7798 77.5789 52.9545C77.5789 46.1293 75.1693 40.3043 70.35 35.4795C65.5307 30.6548 59.7123 28.2424 52.8947 28.2424C46.0772 28.2424 40.2588 30.6548 35.4395 35.4795C30.6202 40.3043 28.2105 46.1293 28.2105 52.9545C28.2105 59.7798 30.6202 65.6048 35.4395 70.4295C40.2588 75.2543 46.0772 77.6667 52.8947 77.6667ZM134 67.0758V38.8333H246.842V67.0758H134Z" fill="#5B5F69" style="fill:#5B5F69;fill:color(display-p3 0.3569 0.3725 0.4118);fill-opacity:1;"/>
</g>
<defs>
<linearGradient id="paint0_linear_261_344" x1="87.5" y1="9.12149e-08" x2="97.2572" y2="226.93" gradientUnits="userSpaceOnUse">
<stop stop-color="#2A2D37" style="stop-color:#2A2D37;stop-color:color(display-p3 0.1634 0.1767 0.2167);stop-opacity:1;"/>
<stop offset="1" stop-color="#2A2D37" stop-opacity="0" style="stop-color:none;stop-opacity:0;"/>
</linearGradient>
</defs>
</svg>
