<svg width="56" height="56" viewBox="0 0 56 56" fill="none" xmlns="http://www.w3.org/2000/svg">
<rect width="56" height="56" rx="11.2" fill="#181A1E" style="fill:#181A1E;fill:color(display-p3 0.0941 0.1020 0.1176);fill-opacity:1;"/>
<path d="M37.4 30.25L30.25 37.4C30.05 37.6 29.825 37.75 29.575 37.85C29.325 37.95 29.075 38 28.825 38C28.575 38 28.325 37.95 28.075 37.85C27.825 37.75 27.6 37.6 27.4 37.4L18.575 28.575C18.3917 28.3917 18.25 28.1792 18.15 27.9375C18.05 27.6958 18 27.4417 18 27.175V20C18 19.45 18.1958 18.9792 18.5875 18.5875C18.9792 18.1958 19.45 18 20 18H27.175C27.4417 18 27.7 18.0542 27.95 18.1625C28.2 18.2708 28.4167 18.4167 28.6 18.6L37.4 27.425C37.6 27.625 37.7458 27.85 37.8375 28.1C37.9292 28.35 37.975 28.6 37.975 28.85C37.975 29.1 37.9292 29.3458 37.8375 29.5875C37.7458 29.8292 37.6 30.05 37.4 30.25ZM28.825 36L35.975 28.85L27.15 20H20V27.15L28.825 36ZM22.5 24C22.9167 24 23.2708 23.8542 23.5625 23.5625C23.8542 23.2708 24 22.9167 24 22.5C24 22.0833 23.8542 21.7292 23.5625 21.4375C23.2708 21.1458 22.9167 21 22.5 21C22.0833 21 21.7292 21.1458 21.4375 21.4375C21.1458 21.7292 21 22.0833 21 22.5C21 22.9167 21.1458 23.2708 21.4375 23.5625C21.7292 23.8542 22.0833 24 22.5 24Z" fill="#5F6368" style="fill:#5F6368;fill:color(display-p3 0.3725 0.3882 0.4078);fill-opacity:1;"/>
<path d="M37.4 30.25L30.25 37.4C30.05 37.6 29.825 37.75 29.575 37.85C29.325 37.95 29.075 38 28.825 38C28.575 38 28.325 37.95 28.075 37.85C27.825 37.75 27.6 37.6 27.4 37.4L18.575 28.575C18.3917 28.3917 18.25 28.1792 18.15 27.9375C18.05 27.6958 18 27.4417 18 27.175V20C18 19.45 18.1958 18.9792 18.5875 18.5875C18.9792 18.1958 19.45 18 20 18H27.175C27.4417 18 27.7 18.0542 27.95 18.1625C28.2 18.2708 28.4167 18.4167 28.6 18.6L37.4 27.425C37.6 27.625 37.7458 27.85 37.8375 28.1C37.9292 28.35 37.975 28.6 37.975 28.85C37.975 29.1 37.9292 29.3458 37.8375 29.5875C37.7458 29.8292 37.6 30.05 37.4 30.25ZM28.825 36L35.975 28.85L27.15 20H20V27.15L28.825 36ZM22.5 24C22.9167 24 23.2708 23.8542 23.5625 23.5625C23.8542 23.2708 24 22.9167 24 22.5C24 22.0833 23.8542 21.7292 23.5625 21.4375C23.2708 21.1458 22.9167 21 22.5 21C22.0833 21 21.7292 21.1458 21.4375 21.4375C21.1458 21.7292 21 22.0833 21 22.5C21 22.9167 21.1458 23.2708 21.4375 23.5625C21.7292 23.8542 22.0833 24 22.5 24Z" fill="url(#paint0_linear_111_2969)" style=""/>
<defs>
<linearGradient id="paint0_linear_111_2969" x1="27.9875" y1="18" x2="27.9875" y2="38" gradientUnits="userSpaceOnUse">
<stop stop-color="#00CDDA" style="stop-color:#00CDDA;stop-color:color(display-p3 0.0000 0.8036 0.8549);stop-opacity:1;"/>
<stop offset="1" stop-color="#8FFF00" style="stop-color:#8FFF00;stop-color:color(display-p3 0.5600 1.0000 0.0000);stop-opacity:1;"/>
</linearGradient>
</defs>
</svg>
